<?xml version="1.0" standalone="no"?>
<!DOCTYPE svg PUBLIC "-//W3C//DTD SVG 20010904//EN"
 "http://www.w3.org/TR/2001/REC-SVG-20010904/DTD/svg10.dtd">
<svg version="1.0" xmlns="http://www.w3.org/2000/svg"
 width="876.000000pt" height="176.000000pt" viewBox="0 0 876.000000 176.000000"
 preserveAspectRatio="xMidYMid meet">

<g transform="translate(0.000000,176.000000) scale(0.100000,-0.100000)"
fill="#000000" stroke="none">
<path d="M750 1691 c-263 -98 -536 -313 -691 -545 -46 -68 -49 -101 -24 -282
31 -233 121 -482 246 -680 39 -62 40 -62 117 -83 204 -54 209 -55 427 -56 205
0 213 1 355 34 175 42 177 44 268 218 113 218 192 510 192 709 l0 92 -47 63
c-146 200 -318 348 -538 465 -74 40 -205 95 -223 94 -4 -1 -41 -14 -82 -29z
m168 -32 c134 -53 297 -154 411 -253 81 -70 202 -204 253 -279 l39 -58 -11
-117 c-25 -256 -111 -518 -242 -734 -44 -74 -34 -69 -198 -107 -248 -57 -444
-55 -705 6 -137 32 -143 39 -235 228 -67 137 -95 208 -70 175 11 -13 11 -13 7
0 -33 106 -42 129 -47 119 -4 -6 -15 19 -24 55 -17 68 -20 110 -6 66 6 -17 7
-9 3 25 -7 58 -13 71 -14 29 -1 -25 -2 -24 -10 11 -4 22 -8 51 -7 65 1 23 1
22 8 -5 6 -24 7 -21 4 14 -2 24 -5 62 -6 85 l-1 41 -7 -45 c-6 -41 -7 -38 -8
29 -2 72 -1 74 45 140 159 226 425 430 678 521 65 24 55 25 143 -11z"/>
<path d="M742 1649 c-29 -12 -52 -23 -50 -24 2 -2 33 7 68 20 36 13 58 24 50
24 -8 0 -39 -9 -68 -20z"/>
<path d="M855 1660 c27 -12 43 -12 25 0 -8 5 -22 9 -30 9 -10 0 -8 -3 5 -9z"/>
<path d="M910 1640 c8 -5 20 -10 25 -10 6 0 3 5 -5 10 -8 5 -19 10 -25 10 -5
0 -3 -5 5 -10z"/>
<path d="M1037 1581 c50 -27 127 -73 170 -102 94 -65 277 -247 344 -342 27
-39 49 -67 49 -62 0 22 -107 153 -204 250 -114 114 -241 207 -368 271 -102 51
-96 40 9 -15z"/>
<path d="M563 1560 c-56 -33 -105 -65 -109 -72 -4 -7 6 -3 22 9 16 11 69 44
119 72 49 28 85 51 79 51 -6 0 -56 -27 -111 -60z"/>
<path d="M780 1470 c0 -52 3 -60 19 -60 14 0 17 6 13 25 -2 14 0 25 7 25 6 0
13 -11 17 -25 4 -16 13 -25 26 -25 15 0 18 4 12 23 -3 12 -11 28 -17 35 -7 9
-7 16 1 24 25 25 13 38 -33 38 l-45 0 0 -60z m50 20 c-18 -11 -24 -6 -16 16 5
14 9 15 19 5 9 -9 9 -14 -3 -21z"/>
<path d="M628 1503 c-10 -2 -18 -9 -18 -14 0 -9 23 -102 26 -107 2 -2 19 1 38
8 27 9 36 17 35 33 -1 16 -3 17 -6 5 -6 -25 -31 -30 -43 -8 -15 28 -12 43 6
36 10 -4 14 -1 11 6 -2 7 -11 12 -21 10 -9 -2 -16 2 -16 8 0 10 14 14 39 11 7
-2 10 2 6 8 -6 11 -26 12 -57 4z"/>
<path d="M967 1504 c-13 -13 -7 -41 13 -59 26 -23 25 -35 0 -35 -12 0 -24 10
-30 23 -9 21 -9 21 -9 -4 -1 -19 5 -28 22 -33 39 -10 56 -7 68 15 9 18 7 25
-15 48 -29 31 -23 51 7 24 19 -17 19 -17 16 2 -3 14 -13 21 -34 23 -17 2 -34
0 -38 -4z"/>
<path d="M359 1416 c-41 -35 -104 -94 -140 -132 -62 -65 -159 -193 -159 -209
0 -4 27 31 60 77 58 82 169 196 275 285 28 23 47 42 44 43 -3 0 -39 -29 -80
-64z"/>
<path d="M516 1433 c3 -16 8 -35 10 -43 3 -8 -8 -2 -24 14 -22 20 -35 26 -46
19 -13 -7 -9 -16 29 -53 28 -27 48 -40 54 -35 11 12 -7 125 -20 125 -5 0 -7
-12 -3 -27z"/>
<path d="M1108 1406 c-24 -47 -25 -55 -11 -60 9 -4 16 -5 17 -4 1 2 12 25 24
51 21 45 22 67 3 67 -4 0 -19 -24 -33 -54z"/>
<path d="M1219 1383 c-12 -15 -12 -16 3 -10 31 11 28 -9 -6 -46 -29 -32 -31
-38 -18 -51 14 -13 19 -10 45 32 29 45 31 46 37 22 5 -22 7 -23 13 -7 4 10 7
20 7 22 0 1 -15 14 -34 29 -31 23 -35 24 -47 9z"/>
<path d="M372 1358 c-14 -18 57 -101 76 -89 11 6 6 18 -20 54 -36 50 -41 53
-56 35z"/>
<path d="M689 1311 c-178 -57 -310 -201 -348 -379 -58 -276 137 -551 421 -593
277 -41 535 163 564 444 24 238 -130 462 -365 531 -72 21 -201 20 -272 -3z
m261 -127 c59 -29 91 -38 149 -42 70 -5 73 -6 48 -19 -53 -27 -110 -27 -195 1
-91 31 -135 31 -141 2 -6 -36 25 -46 152 -46 69 0 127 -5 139 -11 12 -7 44
-15 72 -18 l51 -7 -57 -14 c-47 -11 -65 -11 -103 0 -49 14 -61 10 -52 -15 5
-11 21 -15 64 -15 50 0 155 -29 173 -47 3 -3 -36 -3 -87 -2 -50 2 -95 1 -99
-3 -13 -14 51 -29 97 -23 33 5 57 2 85 -10 l39 -17 -60 -14 c-81 -17 -155 -17
-199 1 -35 15 -36 14 -36 -6 0 -11 -5 -29 -10 -40 -9 -17 -7 -19 17 -18 25 0
26 1 8 9 -15 6 -7 9 31 9 38 1 51 -3 51 -14 0 -8 -5 -11 -10 -8 -6 4 -8 0 -4
-9 3 -10 -5 -25 -21 -39 l-27 -24 20 26 c11 14 5 9 -14 -10 -19 -20 -31 -29
-27 -21 4 8 -1 5 -11 -6 -19 -23 -90 -63 -79 -45 4 7 1 8 -8 5 -9 -3 -13 -11
-9 -17 4 -6 0 -8 -9 -4 -12 4 -15 0 -11 -16 4 -18 3 -19 -6 -7 -10 15 -12 13
-15 -12 0 -7 -12 -16 -26 -20 -24 -7 -24 -8 3 -4 15 2 27 0 27 -5 0 -4 3 -15
7 -25 4 -12 3 -15 -5 -10 -8 5 -12 -1 -12 -18 0 -14 4 -26 8 -26 5 0 6 -17 3
-38 -5 -31 -10 -37 -31 -37 -22 0 -26 6 -33 53 -5 30 -5 71 1 96 10 47 -2 76
-27 68 -8 -3 -11 0 -7 6 3 5 -1 13 -10 16 -8 3 -12 2 -9 -4 3 -6 -1 -7 -9 -4
-9 3 -14 9 -11 14 2 4 -7 12 -21 19 -20 9 -24 9 -19 -1 4 -7 -3 -2 -15 12 -12
14 -19 18 -15 10 8 -16 -33 28 -66 73 l-20 27 43 1 c39 0 41 1 18 10 -14 6
-47 15 -74 21 -85 18 -117 78 -80 150 9 17 14 44 12 59 -5 34 11 38 37 9 12
-13 17 -32 15 -53 -8 -100 -6 -122 15 -122 17 0 20 8 23 60 3 66 14 85 47 85
17 0 31 13 53 53 67 118 137 136 272 71z m-345 -404 l30 -35 -32 29 c-18 17
-33 34 -33 40 0 5 1 7 3 5 1 -2 16 -20 32 -39z m188 -145 c-3 -9 -8 -14 -10
-11 -3 3 -2 9 2 15 9 16 15 13 8 -4z m-6 -167 c-3 -8 -6 -5 -6 6 -1 11 2 17 5
13 3 -3 4 -12 1 -19z m85 -42 c14 -25 -6 -44 -43 -41 -40 3 -54 17 -41 41 13
24 70 24 84 0z"/>
<path d="M850 1030 c0 -6 12 -15 26 -20 37 -14 49 -13 35 4 -10 12 -7 15 16
19 16 2 6 5 -24 6 -31 0 -53 -3 -53 -9z"/>
<path d="M672 1007 c-12 -13 -22 -31 -22 -41 0 -28 44 -96 60 -94 25 5 24 48
-1 74 -20 22 -22 28 -12 54 14 36 4 38 -25 7z"/>
<path d="M938 993 c7 -3 16 -2 19 1 4 3 -2 6 -13 5 -11 0 -14 -3 -6 -6z"/>
<path d="M781 971 c-23 -15 -5 -39 37 -51 22 -5 51 -19 65 -30 27 -22 57 -26
57 -9 0 6 -9 13 -20 16 -26 7 -25 17 4 31 19 8 33 5 81 -19 65 -33 120 -37
200 -15 l50 14 -77 1 c-90 1 -128 13 -128 39 0 17 -9 19 -72 20 -64 2 -69 0
-52 -13 27 -20 14 -18 -37 5 -47 21 -86 25 -108 11z"/>
<path d="M475 948 c11 -37 36 -54 109 -73 42 -11 81 -29 101 -46 18 -16 39
-29 46 -28 8 0 5 4 -6 8 -18 7 -17 9 12 24 40 21 81 21 144 1 45 -15 51 -15
74 0 42 27 28 86 -19 86 -20 -1 -20 -1 -3 -14 9 -7 17 -20 17 -29 0 -27 -28
-26 -72 3 -24 16 -51 30 -61 30 -30 0 -57 19 -57 40 0 15 -7 20 -25 20 l-26 0
22 -29 c21 -29 21 -31 5 -55 -9 -15 -23 -26 -30 -26 -7 0 -29 25 -47 55 -39
63 -66 72 -71 23 -2 -28 -7 -33 -28 -33 -18 0 -29 9 -40 32 -18 39 -56 47 -45
11z"/>
<path d="M755 830 c-13 -5 0 -8 41 -7 34 1 60 5 57 10 -6 9 -73 8 -98 -3z"/>
<path d="M648 823 c6 -2 18 -2 25 0 6 3 1 5 -13 5 -14 0 -19 -2 -12 -5z"/>
<path d="M653 803 c9 -2 23 -2 30 0 6 3 -1 5 -18 5 -16 0 -22 -2 -12 -5z"/>
<path d="M938 803 c18 -2 45 -2 60 0 15 2 0 4 -33 4 -33 0 -45 -2 -27 -4z"/>
<path d="M799 703 c-13 -15 -12 -15 9 -2 19 12 25 12 45 0 20 -13 21 -13 8 2
-7 10 -21 17 -31 17 -10 0 -24 -7 -31 -17z"/>
<path d="M801 554 c0 -11 3 -14 6 -6 3 7 2 16 -1 19 -3 4 -6 -2 -5 -13z"/>
<path d="M280 1264 c0 -4 8 -13 18 -21 16 -13 15 -14 -8 -9 -19 4 -29 0 -39
-15 -7 -12 -11 -22 -9 -23 2 0 22 -16 44 -33 23 -18 44 -29 48 -26 3 3 -11 18
-32 32 l-37 26 44 3 c26 2 47 -1 51 -8 6 -9 9 -9 15 0 4 6 5 12 4 13 -2 1 -23
17 -46 35 -42 32 -53 38 -53 26z"/>
<path d="M1323 1238 c-29 -11 -53 -25 -53 -29 0 -12 17 -11 25 1 3 6 10 10 16
10 12 0 12 -47 0 -52 -5 -1 -4 -11 4 -21 12 -16 16 -13 48 32 29 40 33 52 24
64 -11 13 -18 13 -64 -5z m27 -18 c0 -5 -2 -10 -4 -10 -3 0 -8 5 -11 10 -3 6
-1 10 4 10 6 0 11 -4 11 -10z"/>
<path d="M186 1104 c-3 -8 1 -14 10 -14 25 0 74 -30 74 -45 0 -19 -21 -19 -65
-1 -18 8 -36 12 -39 8 -15 -15 -2 -29 42 -45 46 -18 47 -18 65 4 30 37 21 54
-47 88 -28 15 -36 16 -40 5z"/>
<path d="M1414 1065 c-3 -19 -10 -35 -15 -35 -15 0 -20 20 -9 41 10 18 10 20
-8 10 -24 -13 -18 -55 11 -76 29 -20 57 -3 57 35 0 17 5 30 10 30 6 0 10 -9
10 -20 0 -11 5 -20 10 -20 14 0 13 43 -2 58 -7 7 -22 12 -35 12 -17 0 -23 -7
-29 -35z"/>
<path d="M1587 936 c-4 -44 -5 -81 -3 -83 6 -7 19 121 14 143 -2 10 -7 -17
-11 -60z"/>
<path d="M151 854 c-26 -33 -26 -55 -4 -82 28 -31 56 -35 86 -11 33 25 36 70
7 99 -28 28 -64 25 -89 -6z"/>
<path d="M1420 860 c-27 -27 -25 -66 5 -96 29 -29 58 -26 88 8 35 42 6 108
-48 108 -14 0 -34 -9 -45 -20z"/>
<path d="M1566 799 c-4 -23 -5 -44 -2 -46 2 -2 7 14 11 37 4 23 5 43 2 46 -2
3 -7 -14 -11 -37z"/>
<path d="M1542 688 c-7 -28 -11 -53 -8 -55 2 -2 9 19 16 47 7 28 10 53 8 55
-3 3 -10 -18 -16 -47z"/>
<path d="M101 714 c0 -11 3 -14 6 -6 3 7 2 16 -1 19 -3 4 -6 -2 -5 -13z"/>
<path d="M111 674 c0 -11 3 -14 6 -6 3 7 2 16 -1 19 -3 4 -6 -2 -5 -13z"/>
<path d="M217 602 c-20 -22 -22 -51 -5 -87 8 -18 16 -24 27 -19 9 3 23 8 32
11 11 3 15 12 12 24 -6 21 -18 25 -28 9 -9 -15 -35 -12 -35 3 0 21 36 49 57
45 12 -2 18 -12 18 -30 -1 -20 2 -24 12 -17 13 12 1 58 -20 71 -21 13 -53 9
-70 -10z"/>
<path d="M1365 602 c-6 -17 72 -106 81 -91 3 6 -2 16 -12 23 -21 16 -9 40 17
33 12 -3 23 2 29 13 8 15 2 18 -50 27 -49 8 -60 7 -65 -5z m45 -32 c0 -5 -2
-10 -4 -10 -3 0 -8 5 -11 10 -3 6 -1 10 4 10 6 0 11 -4 11 -10z"/>
<path d="M1506 562 c-10 -31 -31 -86 -47 -121 -16 -35 -28 -66 -26 -68 5 -5
60 120 82 185 9 29 15 55 13 58 -3 2 -13 -22 -22 -54z"/>
<path d="M1300 495 c-6 -8 -9 -23 -5 -36 6 -17 4 -20 -12 -15 -12 4 -23 -1
-31 -15 -8 -12 -12 -22 -10 -22 2 -1 20 -17 40 -36 21 -19 41 -30 48 -26 8 5
1 14 -19 26 -38 23 -42 43 -5 29 25 -10 25 -9 19 22 l-7 33 30 -29 c28 -26 31
-27 40 -10 8 16 2 26 -33 56 -36 32 -45 35 -55 23z"/>
<path d="M170 495 c0 -5 5 -17 10 -25 5 -8 10 -10 10 -5 0 6 -5 17 -10 25 -5
8 -10 11 -10 5z"/>
<path d="M344 446 c-16 -17 -33 -36 -37 -42 -7 -12 28 -64 43 -64 15 0 91 68
82 74 -5 3 -22 -8 -37 -24 -16 -17 -34 -30 -41 -30 -28 0 -24 24 10 59 29 30
34 40 24 48 -10 8 -21 3 -44 -21z"/>
<path d="M191 445 c0 -5 8 -26 19 -45 11 -19 19 -30 19 -25 0 6 -8 26 -19 45
-11 19 -19 31 -19 25z"/>
<path d="M461 310 c-17 -27 -27 -51 -22 -54 4 -3 16 11 25 32 16 32 19 34 28
18 6 -10 8 -33 5 -52 -3 -19 -3 -34 1 -34 14 0 63 99 52 105 -5 3 -10 -1 -10
-9 0 -9 -5 -16 -11 -16 -6 0 -9 9 -6 20 3 13 -1 24 -13 30 -16 8 -23 2 -49
-40z"/>
<path d="M1138 339 l-28 -20 25 -37 c14 -20 25 -42 25 -49 0 -16 12 -17 27 -2
9 9 7 18 -5 38 l-17 26 28 -18 c16 -10 36 -16 45 -12 14 5 12 10 -13 32 -16
14 -30 33 -30 42 0 23 -26 23 -57 0z m32 -20 c0 -11 -4 -17 -10 -14 -5 3 -10
13 -10 21 0 8 5 14 10 14 6 0 10 -9 10 -21z"/>
<path d="M1416 343 c-6 -14 -5 -15 5 -6 7 7 10 15 7 18 -3 3 -9 -2 -12 -12z"/>
<path d="M1367 256 c-38 -64 -60 -89 -87 -99 -12 -4 -12 -6 2 -6 10 -1 26 9
37 21 24 25 93 139 88 144 -2 2 -20 -25 -40 -60z"/>
<path d="M275 270 c9 -16 18 -30 21 -30 2 0 -2 14 -11 30 -9 17 -18 30 -21 30
-2 0 2 -13 11 -30z"/>
<path d="M621 230 c-17 -27 -27 -52 -22 -55 5 -2 11 5 14 16 7 26 32 20 32 -7
0 -21 13 -34 33 -34 17 0 14 111 -2 122 -19 13 -23 9 -55 -42z"/>
<path d="M995 272 c-14 -10 -20 -122 -6 -122 6 0 11 11 11 25 0 29 17 33 35 8
7 -9 19 -14 28 -10 14 5 11 14 -16 56 -34 53 -36 55 -52 43z"/>
<path d="M780 190 c0 -57 1 -60 24 -60 68 0 103 48 71 96 -12 19 -24 24 -55
24 l-40 0 0 -60z m65 5 c0 -22 -5 -40 -12 -43 -9 -2 -13 10 -13 43 0 33 4 45
13 43 7 -3 12 -21 12 -43z"/>
<path d="M309 215 c21 -38 38 -55 70 -66 18 -6 34 -9 37 -6 3 3 -8 8 -25 12
-18 4 -44 22 -62 43 -17 20 -26 28 -20 17z"/>
<path d="M1238 143 c7 -3 16 -2 19 1 4 3 -2 6 -13 5 -11 0 -14 -3 -6 -6z"/>
<path d="M475 124 c28 -7 57 -13 65 -13 8 0 -7 7 -35 15 -27 7 -57 13 -65 13
-8 0 8 -7 35 -15z"/>
<path d="M1140 125 c-25 -7 -38 -13 -30 -14 8 0 38 6 65 13 28 8 41 14 30 14
-11 0 -40 -6 -65 -13z"/>
<path d="M573 103 c9 -2 23 -2 30 0 6 3 -1 5 -18 5 -16 0 -22 -2 -12 -5z"/>
<path d="M1010 100 c-34 -7 -34 -7 -5 -8 17 0 44 4 60 8 27 7 27 8 5 8 -14 -1
-41 -4 -60 -8z"/>
<path d="M633 93 c9 -2 25 -2 35 0 9 3 1 5 -18 5 -19 0 -27 -2 -17 -5z"/>
<path d="M763 83 c37 -2 97 -2 135 0 37 2 6 3 -68 3 -74 0 -105 -1 -67 -3z"/>
<path d="M2196 1544 c-14 -14 -16 -87 -16 -654 0 -567 2 -640 16 -654 19 -20
29 -20 48 0 14 14 16 87 16 654 0 567 -2 640 -16 654 -8 9 -19 16 -24 16 -5 0
-16 -7 -24 -16z"/>
<path d="M2830 1190 c0 -183 1 -190 20 -190 18 0 20 7 20 85 l0 85 80 0 c73 0
80 2 80 20 0 18 -7 20 -80 20 l-80 0 0 65 0 65 90 0 c83 0 90 1 90 20 0 19 -7
20 -110 20 l-110 0 0 -190z"/>
<path d="M3160 1238 c-29 -79 -61 -165 -72 -191 l-18 -48 27 3 c22 2 29 11 43
53 l17 50 78 0 78 0 17 -50 c12 -37 22 -51 38 -53 12 -2 22 0 22 5 0 4 -30 90
-66 191 -60 162 -69 182 -89 182 -20 0 -29 -17 -75 -142z m126 -63 c6 -25 5
-25 -50 -25 -31 0 -56 3 -56 7 0 5 12 44 27 88 l26 80 23 -62 c13 -34 26 -74
30 -88z"/>
<path d="M3480 1190 c0 -183 1 -190 20 -190 18 0 20 7 20 63 0 55 3 67 25 87
15 14 29 20 34 14 4 -5 34 -44 66 -86 44 -59 63 -78 81 -78 13 0 24 2 24 5 0
3 -31 45 -68 93 -37 48 -71 93 -76 100 -5 8 19 41 70 95 71 76 75 82 53 86
-20 3 -41 -15 -116 -95 l-93 -99 0 98 c0 90 -1 97 -20 97 -19 0 -20 -7 -20
-190z"/>
<path d="M3840 1235 c0 -159 7 -185 54 -214 70 -42 150 -35 201 19 l30 31 3
155 c3 150 3 154 -17 154 -20 0 -21 -5 -21 -125 0 -177 -19 -215 -109 -215
-28 0 -48 7 -68 24 -28 24 -28 24 -31 170 -3 136 -5 146 -23 146 -18 0 -19 -9
-19 -145z"/>
<path d="M4240 1190 l0 -190 110 0 c103 0 110 1 110 20 0 18 -7 20 -85 20
l-85 0 0 170 0 170 -25 0 -25 0 0 -190z"/>
<path d="M4490 1360 c0 -18 7 -20 55 -20 l55 0 0 -170 0 -170 25 0 25 0 0 170
0 170 60 0 c53 0 60 2 60 20 0 19 -7 20 -140 20 -133 0 -140 -1 -140 -20z"/>
<path d="M4856 1198 c-36 -101 -66 -187 -66 -191 0 -5 10 -7 21 -5 15 2 27 18
41 56 l20 53 75 -3 76 -3 20 -52 c16 -43 24 -53 43 -53 22 0 23 2 13 28 -6 15
-35 92 -64 172 -29 80 -56 153 -60 163 -4 9 -17 17 -30 17 -20 0 -29 -19 -89
-182z m123 34 l30 -82 -60 0 c-32 0 -59 3 -59 7 0 9 54 162 57 160 1 -1 15
-39 32 -85z"/>
<path d="M5232 1361 c-55 -35 -66 -106 -21 -147 10 -9 53 -29 96 -43 86 -29
102 -46 87 -88 -14 -41 -78 -60 -129 -39 -20 9 -39 25 -42 36 -4 13 -14 20
-30 20 -21 0 -23 -4 -18 -22 10 -35 58 -74 98 -82 48 -9 113 9 143 39 18 18
24 35 24 65 0 55 -28 81 -116 110 -84 28 -94 35 -94 71 0 36 32 59 83 59 30 0
45 -7 67 -30 54 -57 84 -27 31 32 -24 27 -36 32 -87 35 -47 3 -66 0 -92 -16z"/>
<path d="M2800 725 l0 -35 55 0 55 0 0 -155 0 -155 40 0 40 0 0 155 0 155 60
0 60 0 0 35 0 35 -155 0 -155 0 0 -35z"/>
<path d="M3180 570 l0 -190 131 0 130 0 -3 33 -3 32 -87 3 -88 3 0 44 0 45 80
0 80 0 0 30 0 30 -80 0 -80 0 0 45 0 44 88 3 87 3 3 33 3 32 -130 0 -131 0 0
-190z"/>
<path d="M3520 570 l0 -190 40 0 40 0 0 54 c0 39 5 60 20 77 13 16 22 20 27
13 5 -6 28 -41 52 -77 l43 -67 48 0 48 0 -69 102 c-38 56 -69 104 -69 107 0 4
29 41 65 83 36 42 65 79 65 82 0 3 -20 6 -43 6 -43 0 -45 -2 -113 -86 l-69
-86 -3 86 -3 86 -39 0 -40 0 0 -190z"/>
<path d="M3900 570 l0 -190 40 0 39 0 3 118 3 117 80 -117 c78 -114 81 -117
118 -118 l37 0 0 190 0 190 -40 0 -39 0 -3 -122 -3 -121 -83 121 c-79 116 -85
122 -118 122 l-34 0 0 -190z"/>
<path d="M4394 746 c-17 -8 -44 -31 -60 -52 -27 -35 -29 -44 -29 -124 0 -79 2
-90 28 -123 37 -49 75 -67 137 -67 68 0 116 24 148 73 23 35 27 51 27 116 0
90 -22 134 -83 169 -46 25 -120 29 -168 8z m141 -80 c43 -43 45 -138 4 -190
-16 -20 -29 -26 -59 -26 -21 0 -46 3 -55 6 -26 10 -45 59 -45 118 0 44 5 60
26 85 34 40 92 44 129 7z"/>
<path d="M4730 570 l0 -190 120 0 120 0 0 35 0 35 -80 0 -80 0 0 155 0 155
-40 0 -40 0 0 -190z"/>
<path d="M5125 746 c-42 -18 -83 -69 -91 -112 -3 -19 -4 -62 -2 -94 5 -67 24
-101 79 -138 29 -20 44 -23 99 -20 77 4 118 28 145 85 50 105 16 231 -76 278
-35 18 -114 19 -154 1z m140 -80 c43 -43 45 -138 4 -190 -16 -20 -29 -26 -59
-26 -21 0 -46 3 -55 6 -26 10 -45 59 -45 114 0 83 28 119 93 120 27 0 45 -7
62 -24z"/>
<path d="M5544 741 c-91 -55 -119 -181 -63 -280 35 -62 63 -76 152 -76 l78 0
40 42 c36 39 39 47 39 98 l0 55 -75 0 -75 0 0 -30 c0 -28 2 -30 40 -30 46 0
48 -7 19 -44 -28 -36 -99 -37 -134 -2 -47 47 -37 178 16 206 34 19 88 12 113
-15 17 -18 34 -25 60 -25 20 0 36 3 36 8 0 19 -43 74 -72 92 -44 27 -131 27
-174 1z"/>
<path d="M5880 570 l0 -190 35 0 35 0 0 190 0 190 -35 0 -35 0 0 -190z"/>
<path d="M6180 570 l0 -190 40 0 40 0 0 190 0 190 -40 0 -40 0 0 -190z"/>
<path d="M6350 570 l0 -190 40 0 39 0 3 118 3 117 80 -117 c78 -114 81 -117
118 -118 l37 0 0 190 0 190 -40 0 -39 0 -3 -122 -3 -121 -83 121 c-79 116 -85
122 -118 122 l-34 0 0 -190z"/>
<path d="M6750 570 l0 -190 93 0 c79 0 101 4 137 23 57 30 90 90 90 163 0 66
-13 100 -53 142 -39 40 -80 52 -184 52 l-83 0 0 -190z m217 86 c19 -22 23 -39
23 -87 0 -54 -3 -64 -29 -90 -25 -24 -37 -29 -80 -29 l-51 0 0 121 0 121 57
-4 c46 -4 61 -10 80 -32z"/>
<path d="M7150 624 c0 -155 10 -190 67 -225 28 -18 46 -21 105 -17 66 4 72 6
104 41 l34 37 0 150 0 150 -35 0 -35 0 0 -122 c0 -134 -9 -165 -52 -185 -34
-17 -81 -1 -97 33 -6 14 -11 78 -11 149 l0 125 -40 0 -40 0 0 -136z"/>
<path d="M7613 745 c-34 -15 -63 -59 -63 -99 0 -37 45 -84 93 -96 87 -23 106
-32 113 -52 8 -27 -26 -58 -65 -58 -32 0 -71 25 -71 46 0 10 -12 14 -40 14
-45 0 -50 -12 -25 -60 22 -42 63 -60 137 -60 96 0 148 40 148 115 0 41 -48 83
-124 108 -84 27 -102 49 -66 78 29 25 78 19 99 -11 18 -27 81 -28 81 -2 0 25
-27 60 -60 77 -36 19 -115 19 -157 0z"/>
<path d="M7900 725 l0 -35 60 0 60 0 0 -155 0 -155 35 0 35 0 0 155 0 155 60
0 60 0 0 35 0 35 -155 0 -155 0 0 -35z"/>
<path d="M8280 571 l0 -191 40 0 40 0 0 65 0 65 33 0 c30 0 35 -5 65 -65 l32
-65 44 0 45 0 -40 74 -39 73 24 17 c56 36 52 146 -7 190 -24 17 -46 22 -133
24 l-104 4 0 -191z m188 107 c7 -7 12 -26 12 -43 0 -43 -16 -55 -72 -55 l-48
0 0 55 0 55 48 0 c26 0 53 -5 60 -12z"/>
<path d="M8640 570 l0 -190 40 0 40 0 0 190 0 190 -40 0 -40 0 0 -190z"/>
</g>
</svg>
